<svg width="35" height="35" viewBox="0 0 35 35" fill="none" xmlns="http://www.w3.org/2000/svg">
<g clip-path="url(#clip0_2235_117)">
<path d="M16.51 26.6924L21.0355 19.6213H25.9853C28.1066 19.6213 29.8744 18.5607 30.2279 17.5C29.8744 16.4393 28.1066 15.3787 25.9853 15.3787H21.0355L16.51 8.30761C16.2272 7.88335 15.8029 7.74193 15.3787 7.88335L14.813 8.02477C14.318 8.2369 14.0352 8.66117 14.1059 9.15614L15.3787 15.3787L11.8431 16.0858L9.72181 13.9645H8.3076L9.0147 17.5L8.3076 21.0355H9.72181L11.8431 18.9142L15.3787 19.6213L14.1059 25.8439C14.0352 26.3388 14.318 26.7631 14.813 26.9752L15.308 27.1874C15.8029 27.2581 16.2272 27.1167 16.51 26.6924Z" fill="white" stroke="#9CA3AF" stroke-width="2" stroke-linecap="round" stroke-linejoin="round"/>
</g>
<defs>
<clipPath id="clip0_2235_117">
<rect width="24" height="24" fill="white" transform="translate(17.5 0.529434) rotate(45)"/>
</clipPath>
</defs>
</svg>
