<svg width="22" height="22" viewBox="0 0 22 22" fill="none" xmlns="http://www.w3.org/2000/svg">
<path d="M16.5417 19L14.6667 10.4583L18.3125 6.8125C19.875 5.25 20.3958 3.16667 19.875 2.125C18.8333 1.60417 16.75 2.125 15.1875 3.6875L11.5417 7.33333L3 5.45833C2.47917 5.35417 2.0625 5.5625 1.85417 5.97917L1.54167 6.5C1.33333 7.02083 1.4375 7.54167 1.85417 7.85417L7.375 11.5L5.29167 14.625H2.16667L1.125 15.6667L4.25 17.75L6.33333 20.875L7.375 19.8333V16.7083L10.5 14.625L14.1458 20.1458C14.4583 20.5625 14.9792 20.6667 15.5 20.4583L16.0208 20.25C16.4375 19.9375 16.6458 19.5208 16.5417 19Z" stroke="#111827" stroke-width="2.08333" stroke-linecap="round" stroke-linejoin="round"/>
</svg>
